<svg xmlns="http://www.w3.org/2000/svg" xmlns:xlink="http://www.w3.org/1999/xlink" version="1.1" x="0px" y="0px" viewBox="0 0 30 37.5" enable-background="new 0 0 30 30" xml:space="preserve"><g display="none"><g display="inline"><g><g><g><g><g><g><path fill="#000000" d="M15,0.1c8.2,0,14.9,6.7,14.9,14.9S23.2,29.9,15,29.9S0.1,23.2,0.1,15S6.8,0.1,15,0.1 M15,0          C6.7,0,0,6.7,0,15c0,8.3,6.7,15,15,15s15-6.7,15-15C30,6.7,23.3,0,15,0L15,0z"/></g></g></g></g></g><g><g><path fill="#000000" d="M15,2.1c7.1,0,12.9,5.8,12.9,12.9S22.1,27.9,15,27.9S2.1,22.1,2.1,15S7.9,2.1,15,2.1 M15,2       C7.8,2,2,7.8,2,15c0,7.2,5.8,13,13,13s13-5.8,13-13C28,7.8,22.2,2,15,2L15,2z"/></g></g></g><g><g><g><path fill="#000000" d="M29.9,0.1v29.8H0.1V0.1H29.9 M30,0H0v30h30V0L30,0z"/></g><g><path fill="#000000" d="M27.9,2.1v25.8H2.1V2.1H27.9 M28,2H2v26h26V2L28,2z"/></g></g></g><g><g><line fill="#000000" stroke="#00FFFF" stroke-width="0.1" stroke-linecap="round" stroke-miterlimit="10" x1="0" y1="0" x2="30" y2="30"/><line fill="#000000" stroke="#00FFFF" stroke-width="0.1" stroke-linecap="round" stroke-miterlimit="10" x1="30" y1="0" x2="0" y2="30"/></g></g><g opacity="0.2"><polygon fill="#000000" points="30,14 16,14 16,0 14,0 14,14 0,14 0,16 14,16 14,30 16,30 16,16 30,16    "/></g></g></g><g display="none"><g display="inline"><path d="M24,8c2.2,0,4,1.8,4,4v9h-5V8H24 M24,6h-1c-1.1,0-2,0.9-2,2v15h9V12C30,8.7,27.3,6,24,6L24,6z"/></g><g display="inline"><circle fill="#000000" cx="7.5" cy="23.5" r="2.5"/><path d="M7.5,22C8.3,22,9,22.7,9,23.5S8.3,25,7.5,25S6,24.3,6,23.5S6.7,22,7.5,22 M7.5,20C5.6,20,4,21.6,4,23.5S5.6,27,7.5,27    s3.5-1.6,3.5-3.5S9.4,20,7.5,20L7.5,20z"/></g><g display="inline"><circle fill="#000000" cx="22.5" cy="23.5" r="2.5"/><path d="M22.5,22c0.8,0,1.5,0.7,1.5,1.5S23.3,25,22.5,25S21,24.3,21,23.5S21.7,22,22.5,22 M22.5,20c-1.9,0-3.5,1.6-3.5,3.5    s1.6,3.5,3.5,3.5s3.5-1.6,3.5-3.5S24.4,20,22.5,20L22.5,20z"/></g><path display="inline" fill="none" stroke="#000000" stroke-width="2" stroke-linecap="round" stroke-linejoin="round" stroke-miterlimit="10" d="   M3,6V4h14c1.1,0,2,0.9,2,2v13H3v-2"/><line display="inline" fill="none" stroke="#000000" stroke-width="2" stroke-linecap="round" stroke-linejoin="round" stroke-miterlimit="10" x1="27" y1="22" x2="3" y2="22"/><g display="inline"><rect x="2" y="20" fill="#000000" width="19" height="1"/></g><g display="inline"><rect x="23" y="20" fill="#000000" width="5" height="1"/></g><line display="inline" fill="none" stroke="#000000" stroke-width="2" stroke-linecap="round" stroke-miterlimit="10" x1="3" y1="10" x2="12" y2="10"/><line display="inline" fill="none" stroke="#000000" stroke-width="2" stroke-linecap="round" stroke-miterlimit="10" x1="1" y1="13" x2="10" y2="13"/></g><g><g><path d="M30,12c0-3.3-2.7-6-6-6h-1c-1.1,0-2,0.9-2,2v13h-0.9H9.9H5.1H3c-0.6,0-1,0.4-1,1s0.4,1,1,1h1.1C4,23.2,4,23.3,4,23.5    C4,25.4,5.6,27,7.5,27s3.5-1.6,3.5-3.5c0-0.2,0-0.3-0.1-0.5h8.1c0,0.2-0.1,0.3-0.1,0.5c0,1.9,1.6,3.5,3.5,3.5s3.5-1.6,3.5-3.5    c0-0.2,0-0.3-0.1-0.5H30V12z M9,23.5C9,24.3,8.3,25,7.5,25S6,24.3,6,23.5c0-0.2,0-0.3,0.1-0.5h2.8C9,23.2,9,23.3,9,23.5z M24,23.5    c0,0.8-0.7,1.5-1.5,1.5S21,24.3,21,23.5c0-0.2,0-0.3,0.1-0.5h2.8C24,23.2,24,23.3,24,23.5z M28,21h-3.1H23V8h1c2.2,0,4,1.8,4,4V21    z"/><path d="M3,7c0.6,0,1-0.4,1-1V5h13c0.6,0,1,0.4,1,1v12H4v-1c0-0.6-0.4-1-1-1s-1,0.4-1,1v2c0,0.6,0.4,1,1,1h16c0.6,0,1-0.4,1-1V6    c0-1.7-1.3-3-3-3H3C2.4,3,2,3.4,2,4v2C2,6.6,2.4,7,3,7z"/><path d="M3,11h9c0.6,0,1-0.4,1-1s-0.4-1-1-1H3c-0.6,0-1,0.4-1,1S2.4,11,3,11z"/><path d="M11,13c0-0.6-0.4-1-1-1H1c-0.6,0-1,0.4-1,1s0.4,1,1,1h9C10.6,14,11,13.6,11,13z"/></g></g><text x="0" y="45" fill="#000000" font-size="5px" font-weight="bold" font-family="'Helvetica Neue', Helvetica, Arial-Unicode, Arial, Sans-serif">Created by Jaro Sigrist</text><text x="0" y="50" fill="#000000" font-size="5px" font-weight="bold" font-family="'Helvetica Neue', Helvetica, Arial-Unicode, Arial, Sans-serif">from the Noun Project</text></svg>